<svg viewBox="0 0 38 38" xmlns="http://www.w3.org/2000/svg"><path d="M0 18.74v-.562h.008c-.005.187-.008.374-.008.562Zm0 0c0 .188.003.375.008.561H0v-.561Zm18.18 18.74v-.009c.186.006.373.009.56.009h-.56Zm1.123-.009c-.187.006-.374.009-.562.009h.561v-.009Zm18.17-18.17h.009V18.178h-.008a19.058 19.058 0 0 1 0 1.123ZM18.18.008a19.09 19.09 0 0 1 1.124 0V0h-1.124v.008Z" /><path d="M19.303.008c.094 7.592.613 11.86 3.462 14.708 2.848 2.848 7.116 3.367 14.709 3.462C37.182 8.275 29.206.3 19.303.008ZM14.717 14.716C17.565 11.868 18.085 7.6 18.179.008 8.276.3.3 8.275.01 18.178c7.591-.095 11.86-.614 14.708-3.462ZM.008 19.301C.3 29.205 8.276 37.18 18.18 37.471c-.094-7.591-.614-11.86-3.462-14.707C11.868 19.915 7.6 19.396.008 19.3ZM37.474 19.301c-7.593.095-11.86.614-14.709 3.463-2.848 2.848-3.368 7.116-3.462 14.707 9.903-.291 17.879-8.266 18.17-18.17Z" /></svg>
