<svg xmlns="http://www.w3.org/2000/svg" viewBox="0 0 37.5 37.5" style="enable-background:new 0 0 37.5 37.5" xml:space="preserve"><path d="M0 18.7v-.6.6zm0 0v.6-.6zm18.2 18.8h.6-.6zm1.1 0h-.6.6zm18.2-18.2v-1.1 1.1zM18.2 0h1.1-1.1zM19.3 0c.1 7.6.6 11.9 3.5 14.7 2.8 2.8 7.1 3.4 14.7 3.5C37.2 8.3 29.2.3 19.3 0zm-4.6 14.7c2.8-2.8 3.4-7.1 3.5-14.7C8.3.3.3 8.3 0 18.2c7.6-.1 11.9-.6 14.7-3.5zM0 19.3c.3 9.9 8.3 17.9 18.2 18.2-.1-7.6-.6-11.9-3.5-14.7-2.8-2.9-7.1-3.4-14.7-3.5zm37.5 0c-7.6.1-11.9.6-14.7 3.5-2.8 2.8-3.4 7.1-3.5 14.7 9.9-.3 17.9-8.3 18.2-18.2z"/></svg>