<svg xmlns="http://www.w3.org/2000/svg" fill-rule="evenodd" stroke-linejoin="round" stroke-miterlimit="2" clip-rule="evenodd" viewBox="0 0 32 32"><path d="M16.028 1c-8.279 0-15 6.721-15 15s6.721 15 15 15 15-6.721 15-15-6.721-15-15-15Zm.944 25.75v-3.5a1 1 0 0 0-2 0v3.5a1 1 0 0 0 2 0Zm7.317-3.836-2.475-2.475a1 1 0 0 0-1.414 1.414l2.475 2.475a1 1 0 0 0 1.414-1.414ZM9.086 24.289l2.475-2.475a1 1 0 0 0-1.414-1.414l-2.475 2.475a1 1 0 0 0 1.414 1.414ZM15.965 10.5a5.503 5.503 0 0 0-5.5 5.5c0 3.036 2.465 5.5 5.5 5.5 3.036 0 5.5-2.464 5.5-5.5s-2.464-5.5-5.5-5.5Zm.028 2h-.028a3.502 3.502 0 0 0-3.5 3.5c0 1.932 1.569 3.5 3.5 3.5h.028v-7Zm10.757 2.528h-3.5a1 1 0 0 0 0 2h3.5a1 1 0 0 0 0-2Zm-21.5 1.944h3.5a1 1 0 0 0 0-2h-3.5a1 1 0 0 0 0 2Zm17.664-9.261-2.475 2.475a1 1 0 0 0 1.414 1.414l2.475-2.475a1 1 0 0 0-1.414-1.414ZM7.711 9.086l2.475 2.475a1 1 0 0 0 1.414-1.414L9.125 7.672a1 1 0 0 0-1.414 1.414Zm7.317-3.836v3.5a1 1 0 0 0 2 0v-3.5a1 1 0 0 0-2 0Z"/></svg>