<svg xmlns="http://www.w3.org/2000/svg" fill-rule="evenodd" stroke-linejoin="round" stroke-miterlimit="2" clip-rule="evenodd" viewBox="0 0 32 32"><path d="M16.028 1c-8.279 0-15 6.721-15 15s6.721 15 15 15 15-6.721 15-15-6.721-15-15-15Zm0 2c7.175 0 13 5.825 13 13s-5.825 13-13 13-13-5.825-13-13 5.825-13 13-13Z"/><path d="M15.965 10.5a5.503 5.503 0 0 0-5.5 5.5c0 3.036 2.465 5.5 5.5 5.5 3.036 0 5.5-2.464 5.5-5.5s-2.464-5.5-5.5-5.5zm.028 2h-.028a3.502 3.502 0 0 0-3.5 3.5c0 1.932 1.569 3.5 3.5 3.5h.028v-7zm-.965-7.25v3.5a1 1 0 0 0 2 0v-3.5a1 1 0 0 0-2 0zm7.886 2.461-2.475 2.475a1 1 0 0 0 1.414 1.414l2.475-2.475a1 1 0 0 0-1.414-1.414zm3.836 7.317h-3.5a1 1 0 0 0 0 2h3.5a1 1 0 0 0 0-2zm-2.461 7.886-2.475-2.475a1 1 0 0 0-1.414 1.414l2.475 2.475a1 1 0 0 0 1.414-1.414zm-7.317 3.836v-3.5a1 1 0 0 0-2 0v3.5a1 1 0 0 0 2 0zm-7.886-2.461 2.475-2.475a1 1 0 0 0-1.414-1.414l-2.475 2.475a1 1 0 0 0 1.414 1.414zM5.25 16.972h3.5a1 1 0 0 0 0-2h-3.5a1 1 0 0 0 0 2zm2.461-7.886 2.475 2.475a1 1 0 0 0 1.414-1.414L9.125 7.672a1 1 0 0 0-1.414 1.414z"/></svg>