<svg xmlns="http://www.w3.org/2000/svg" viewBox="0 0 512 512"><path d="m305 512-11.6-2.4a102 102 0 0 1-51-28.8c-51.3-51.4-102.5-102.9-154.2-154-17.2-17-17-43.2 7.9-57.8 23-13.5 45.4-11.7 66.9 3.6 10.8 7.7 21.4 15.9 32 23.9l5.2 3.7V115.1c0-9.3 1.6-18.1 6.3-26.3a45 45 0 0 1 48-20.9 43.4 43.4 0 0 1 34.3 39.3c.7 23.5.4 47 .5 70.5v6.2a45.4 45.4 0 0 1 37.8-3 45.8 45.8 0 0 1 26.6 26.7 45 45 0 0 1 66.8 22.3 44.3 44.3 0 0 1 68.5 31.4c.5 5.1.7 10.3.7 15.4v110c-.1 28-7.6 53.6-24.7 76a120.8 120.8 0 0 1-83.2 48.2c-1.6.2-3.2.6-4.9 1l-71.9.1zm-82.3-296.5v103c0 2.3-.1 4.7-.6 6.9a10.8 10.8 0 0 1-14.9 7.4c-1.8-.8-3.4-2-5-3.2l-52.4-39.3c-14.6-10.9-32.1-10.9-45.3-.3-7.9 6.4-8.3 12.9-1 20.2l155.6 155.6a79 79 0 0 0 58 23.9h48.5c12.9-.1 25.5-2.2 37.6-6.8a98.7 98.7 0 0 0 63.8-87.8c.9-42.3.5-84.7.4-127 0-3.6-.8-7.4-2.3-10.6a21.8 21.8 0 0 0-23.9-12.4 22.4 22.4 0 0 0-18.2 20.5c-.3 4.6.1 9.4-.5 14-.8 6.2-5.6 9.8-11.5 9.4-5.6-.3-9.7-4.4-10.2-10.4-.3-3.5-.1-7-.1-10.5-.2-9 .3-18-.7-26.9a21.1 21.1 0 0 0-22.4-18.5c-12.3.4-21.3 9.8-21.5 23-.2 10.7.1 21.3-.1 32-.2 8.1-6.9 13.1-14.2 11-5-1.5-7.8-5.9-7.9-12.5v-52c0-8.4-2.9-15.4-10.1-20.1a21.1 21.1 0 0 0-22.3-1.2c-8.4 4.3-12.1 11.6-12.2 20.8l-.1 33.5c0 7.5.1 15-.4 22.5-.3 5.4-4.7 9.1-9.9 9.4-5.4.3-9.8-2.6-11.2-7.9-.6-2.4-.7-4.9-.8-7.4v-158l-.1-6.5a22.2 22.2 0 0 0-27.1-19.6c-11 2.7-17.1 11.1-17.1 23.8l.1 102zM81 0c10 6.8 10.6 13.1 2 21.7L60.6 44.2l6.6.3h94.9c2.3 0 4.7.1 7 .5a11 11 0 0 1 9 10.5c.1 4.9-3.3 9.4-8.2 10.6-2.4.6-4.9.7-7.4.7H60.2C68.5 75 75.7 82 82.8 89.2c7.2 7.1 8.2 13.4 3 18.6-5 5.1-11.7 4.2-18.6-2.7L26.8 64.9c-6.2-6.2-6.2-12.3.2-18.6C39.8 33.5 52.6 20.6 65.5 7.9 68.4 5 71.8 2.6 75 0h6zm333 0c2.8 2 6 3.7 8.4 6 13.7 13.4 27.2 27 40.7 40.6 5.9 5.9 6 12 .2 17.8l-42.1 42c-3.7 3.7-7.8 5.8-13 4.1-8-2.6-10-12.1-3.7-18.7 6.6-7 13.6-13.7 20.4-20.5l4.1-4.4H327.4c-1.8 0-3.7 0-5.5-.2-6.6-1.1-10.4-5.4-10.1-11.5.2-5.8 4.3-9.7 10.7-10.4 1.8-.2 3.7-.2 5.5-.2h99.6l1-1.7a822.5 822.5 0 0 1-22.1-21.3C398.1 13 398.9 6.3 409 0h5z"/></svg>