<svg xmlns="http://www.w3.org/2000/svg" viewBox="0 0 1000 1000" xml:space="preserve"><path d="M489.5 777.2H548s17.7-1.9 26.8-11.6c8.3-8.9 8.1-25.7 8.1-25.7s-1.1-78.6 35.4-90.2c35.9-11.4 82.1 76 131.1 109.5 37.1 25.5 65.2 19.8 65.2 19.8l130.8-1.8s68.5-4.2 36-58c-2.7-4.4-19-39.8-97.3-112.6-82.1-76.2-71.1-63.8 27.8-195.5 60.2-80.3 84.2-129.2 76.7-150.3-7.3-20-51.6-14.8-51.6-14.8l-147.4 1s-11-1.5-19.1 3.3c-7.9 4.7-13 15.8-13 15.8S734.1 328.2 703 381c-65.6 111.5-91.8 117.3-102.5 110.4-25-16.1-18.8-64.8-18.8-99.3 0-107.9 16.4-153-31.9-164.6-16-3.9-27.8-6.4-68.8-6.9-52.5-.5-97.1.2-122.2 12.5-16.8 8.2-29.7 26.5-21.9 27.6 9.8 1.2 31.8 5.9 43.6 21.9 15.1 20.5 14.5 66.6 14.5 66.6s9 127.1-20 142.9c-19.8 10.8-47.1-11.3-105.6-112.4-30-51.8-52.6-109-52.6-109s-4.4-10.6-12.3-16.4c-9.4-7-22.6-9.1-22.6-9.1L42 246s-21.1.6-28.8 9.8c-6.9 8.1-.6 24.9-.6 24.9s109.6 256.5 233.8 385.7C360.2 785 489.5 777.2 489.5 777.2z"/></svg>