<svg xmlns="http://www.w3.org/2000/svg" viewBox="0 0 1000 1000" xml:space="preserve"><path d="M989.4 418c-.4-19.7-1.9-44.6-4.6-74.6-2.7-30.1-6.7-57-11.8-80.7-5.8-26.6-18.5-49-38-67.3-19.5-18.2-42.2-28.8-68.1-31.7C786 154.6 663.7 150 500 150s-286 4.6-366.9 13.7c-25.9 2.9-48.5 13.5-67.8 31.7C46 213.6 33.4 236 27.6 262.7c-5.5 23.7-9.6 50.6-12.3 80.7-2.7 30.1-4.3 55-4.6 74.6-.4 19.7-.6 47-.6 82s.2 62.3.6 82c.4 19.7 1.9 44.6 4.6 74.6 2.7 30.1 6.7 57 11.8 80.7 5.8 26.6 18.5 49 38 67.3s42.2 28.8 68.1 31.7C214 845.4 336.3 850 500 850c163.7 0 286-4.6 366.9-13.7 25.9-2.9 48.5-13.5 67.8-31.7 19.3-18.2 31.9-40.7 37.7-67.3 5.5-23.7 9.6-50.6 12.3-80.7 2.7-30.1 4.3-55 4.6-74.6.4-19.7.6-47 .6-82 .1-35-.1-62.3-.5-82zM693.6 529.5l-280 175c-5.1 3.6-11.3 5.5-18.6 5.5-5.5 0-11.1-1.5-16.9-4.4-12-6.6-18-16.8-18-30.6V325c0-13.8 6-24.1 18-30.6 12.4-6.6 24.2-6.2 35.5 1.1l280 175c10.9 6.2 16.4 16 16.4 29.5s-5.5 23.3-16.4 29.5z"/></svg>