<?xml version="1.0" encoding="utf-8"?><svg viewBox="0 0 1000 1000" xmlns="http://www.w3.org/2000/svg" xmlns:xlink="http://www.w3.org/1999/xlink"><style>:root>svg{display:none}:root>svg:target{display:block}</style><svg viewBox="0 0 12 8" id="arrow-down" xmlns="http://www.w3.org/2000/svg"><path fill="#535C69" fill-rule="evenodd" d="M6 4.829L10.243.586 11.657 2 7.414 6.243 6 7.657.343 2 1.757.586 6 4.829z" opacity=".789"/></svg><svg viewBox="0 0 699.428 699.428" id="copy" xmlns="http://www.w3.org/2000/svg"><path d="M502.714 0H240.428C194.178 0 153 42.425 153 87.429l-25.267.59c-46.228 0-84.019 41.834-84.019 86.838V612c0 45.004 41.179 87.428 87.429 87.428H459c46.249 0 87.428-42.424 87.428-87.428h21.857c46.25 0 87.429-42.424 87.429-87.428v-349.19L502.714 0zM459 655.715H131.143c-22.95 0-43.714-21.441-43.714-43.715V174.857c0-22.272 18.688-42.993 41.638-42.993l23.933-.721v393.429C153 569.576 194.178 612 240.428 612h262.286c0 22.273-20.765 43.715-43.714 43.715zm153-131.143c0 22.271-20.765 43.713-43.715 43.713H240.428c-22.95 0-43.714-21.441-43.714-43.713V87.429c0-22.272 20.764-43.714 43.714-43.714H459c-.351 50.337 0 87.975 0 87.975 0 45.419 40.872 86.882 87.428 86.882H612v306zm-65.572-349.715c-23.277 0-43.714-42.293-43.714-64.981V44.348L612 174.857h-65.572zm-43.714 131.537H306c-12.065 0-21.857 9.77-21.857 21.835 0 12.065 9.792 21.835 21.857 21.835h196.714c12.065 0 21.857-9.771 21.857-21.835 0-12.065-9.792-21.835-21.857-21.835zm0 109.176H306c-12.065 0-21.857 9.77-21.857 21.834 0 12.066 9.792 21.836 21.857 21.836h196.714c12.065 0 21.857-9.77 21.857-21.836 0-12.064-9.792-21.834-21.857-21.834z"/></svg><svg viewBox="0 0 37.5 37.5" id="dzen" xmlns="http://www.w3.org/2000/svg"><path d="M0 18.7v-.6.6zm0 0v.6-.6zm18.2 18.8h.6-.6zm1.1 0h-.6.6zm18.2-18.2v-1.1 1.1zM18.2 0h1.1-1.1zm1.1 0c.1 7.6.6 11.9 3.5 14.7 2.8 2.8 7.1 3.4 14.7 3.5C37.2 8.3 29.2.3 19.3 0zm-4.6 14.7c2.8-2.8 3.4-7.1 3.5-14.7C8.3.3.3 8.3 0 18.2c7.6-.1 11.9-.6 14.7-3.5zM0 19.3c.3 9.9 8.3 17.9 18.2 18.2-.1-7.6-.6-11.9-3.5-14.7-2.8-2.9-7.1-3.4-14.7-3.5zm37.5 0c-7.6.1-11.9.6-14.7 3.5-2.8 2.8-3.4 7.1-3.5 14.7 9.9-.3 17.9-8.3 18.2-18.2z"/></svg><svg viewBox="0 0 1024 1024" id="home" xmlns="http://www.w3.org/2000/svg"><path d="M512 128L128 447.936V896h255.936V640H640v256h255.936V447.936z"/></svg><svg viewBox="0 0 16 16" id="link-blank" xmlns="http://www.w3.org/2000/svg"><path d="M7.775 3.275l1.25-1.25a3.5 3.5 0 114.95 4.95l-2.5 2.5a3.5 3.5 0 01-4.95 0 .751.751 0 01.018-1.042.751.751 0 011.042-.018 1.998 1.998 0 002.83 0l2.5-2.5a2.002 2.002 0 00-2.83-2.83l-1.25 1.25a.751.751 0 01-1.042-.018.751.751 0 01-.018-1.042zm-4.69 9.64a1.998 1.998 0 002.83 0l1.25-1.25a.751.751 0 011.042.018.751.751 0 01.018 1.042l-1.25 1.25a3.5 3.5 0 11-4.95-4.95l2.5-2.5a3.5 3.5 0 014.95 0 .751.751 0 01-.018 1.042.751.751 0 01-1.042.018 1.998 1.998 0 00-2.83 0l-2.5 2.5a1.998 1.998 0 000 2.83z"/></svg><svg viewBox="0 0 64 64" id="logo" xmlns="http://www.w3.org/2000/svg"><circle fill="#050818" cx="32" cy="32" r="32"/><path fill="#fff" d="M7.75 32.98v-1.99l9.01-5.92v3.41l-5.44 3.43v.16l5.44 3.43v3.43l-9.01-5.95zm12.06 10.1v-2.81h11.34v2.81H19.81zm14.4 0l7.41-22.16h3.04l-7.41 22.16h-3.04zm13.03-7.58l5.44-3.43v-.16l-5.44-3.43v-3.41l9.01 5.9v1.99l-9.01 5.97V35.5z"/></svg><svg version="1.2" baseProfile="tiny" viewBox="0 0 64 64" id="logo-light" xmlns="http://www.w3.org/2000/svg"><circle fill="#f7f6ff" cx="32" cy="32" r="32"/><path fill="#17152f" d="M7.75 32.98v-1.99l9.01-5.92v3.41l-5.44 3.43v.16l5.44 3.43v3.43l-9.01-5.95zm12.06 10.1v-2.81h11.34v2.81H19.81zm14.4 0l7.41-22.16h3.04l-7.41 22.16h-3.04zm13.03-7.58l5.44-3.43v-.16l-5.44-3.43v-3.41l9.01 5.9v1.99l-9.01 5.97V35.5z"/></svg><svg viewBox="0 -6.5 38 38" id="right-arrow" xmlns="http://www.w3.org/2000/svg"><path d="M26.812.58l10.513 10.424.088.082c.352.349.557.809.587 1.352l-.002.183c-.025.43-.19.842-.514 1.21l-.123.127L26.812 24.42a2.005 2.005 0 01-2.822 0 1.985 1.985 0 010-2.822l7.284-7.224H2C.897 14.375 0 13.486 0 12.385c0-1.102.897-1.992 2-1.992h29.04l-7.05-6.99a1.985 1.985 0 010-2.822 2.005 2.005 0 012.822 0z" fill="#1C1C1F" fill-rule="nonzero"/></svg><svg viewBox="0 0 512 512" id="swipe" xmlns="http://www.w3.org/2000/svg"><path d="M305 512l-11.6-2.4a102 102 0 01-51-28.8c-51.3-51.4-102.5-102.9-154.2-154-17.2-17-17-43.2 7.9-57.8 23-13.5 45.4-11.7 66.9 3.6 10.8 7.7 21.4 15.9 32 23.9l5.2 3.7V115.1c0-9.3 1.6-18.1 6.3-26.3a45 45 0 0148-20.9 43.4 43.4 0 0134.3 39.3c.7 23.5.4 47 .5 70.5v6.2a45.4 45.4 0 0137.8-3 45.8 45.8 0 0126.6 26.7 45 45 0 0166.8 22.3 44.3 44.3 0 0168.5 31.4c.5 5.1.7 10.3.7 15.4v110c-.1 28-7.6 53.6-24.7 76a120.8 120.8 0 01-83.2 48.2c-1.6.2-3.2.6-4.9 1l-71.9.1zm-82.3-296.5v103c0 2.3-.1 4.7-.6 6.9a10.8 10.8 0 01-14.9 7.4c-1.8-.8-3.4-2-5-3.2l-52.4-39.3c-14.6-10.9-32.1-10.9-45.3-.3-7.9 6.4-8.3 12.9-1 20.2l155.6 155.6a79 79 0 0058 23.9h48.5c12.9-.1 25.5-2.2 37.6-6.8a98.7 98.7 0 0063.8-87.8c.9-42.3.5-84.7.4-127 0-3.6-.8-7.4-2.3-10.6a21.8 21.8 0 00-23.9-12.4 22.4 22.4 0 00-18.2 20.5c-.3 4.6.1 9.4-.5 14-.8 6.2-5.6 9.8-11.5 9.4-5.6-.3-9.7-4.4-10.2-10.4-.3-3.5-.1-7-.1-10.5-.2-9 .3-18-.7-26.9a21.1 21.1 0 00-22.4-18.5c-12.3.4-21.3 9.8-21.5 23-.2 10.7.1 21.3-.1 32-.2 8.1-6.9 13.1-14.2 11-5-1.5-7.8-5.9-7.9-12.5v-52c0-8.4-2.9-15.4-10.1-20.1a21.1 21.1 0 00-22.3-1.2c-8.4 4.3-12.1 11.6-12.2 20.8l-.1 33.5c0 7.5.1 15-.4 22.5-.3 5.4-4.7 9.1-9.9 9.4-5.4.3-9.8-2.6-11.2-7.9-.6-2.4-.7-4.9-.8-7.4v-158l-.1-6.5a22.2 22.2 0 00-27.1-19.6c-11 2.7-17.1 11.1-17.1 23.8l.1 102zM81 0c10 6.8 10.6 13.1 2 21.7L60.6 44.2l6.6.3h94.9c2.3 0 4.7.1 7 .5a11 11 0 019 10.5c.1 4.9-3.3 9.4-8.2 10.6-2.4.6-4.9.7-7.4.7H60.2C68.5 75 75.7 82 82.8 89.2c7.2 7.1 8.2 13.4 3 18.6-5 5.1-11.7 4.2-18.6-2.7L26.8 64.9c-6.2-6.2-6.2-12.3.2-18.6C39.8 33.5 52.6 20.6 65.5 7.9 68.4 5 71.8 2.6 75 0h6zm333 0c2.8 2 6 3.7 8.4 6 13.7 13.4 27.2 27 40.7 40.6 5.9 5.9 6 12 .2 17.8l-42.1 42c-3.7 3.7-7.8 5.8-13 4.1-8-2.6-10-12.1-3.7-18.7 6.6-7 13.6-13.7 20.4-20.5l4.1-4.4H327.4c-1.8 0-3.7 0-5.5-.2-6.6-1.1-10.4-5.4-10.1-11.5.2-5.8 4.3-9.7 10.7-10.4 1.8-.2 3.7-.2 5.5-.2h99.6l1-1.7a822.5 822.5 0 01-22.1-21.3C398.1 13 398.9 6.3 409 0h5z"/></svg><svg clip-rule="evenodd" fill-rule="evenodd" image-rendering="optimizeQuality" shape-rendering="geometricPrecision" text-rendering="geometricPrecision" viewBox="0 0 512 512" id="telegram" xmlns="http://www.w3.org/2000/svg"><path d="M512 50.49l-80.98 408.28s-11.32 28.31-42.47 14.72L200.84 329.82c25.23-22.68 220.96-198.65 229.52-206.63 13.23-12.35 5.02-19.7-10.36-10.36l-289.11 183.6-111.54-37.55S1.79 252.65.1 239.06c-1.7-13.59 19.82-20.95 19.82-20.95L474.63 39.73S512 23.31 512 50.49z" fill-rule="nonzero"/></svg><svg viewBox="0 0 1000 1000" id="vk" xmlns="http://www.w3.org/2000/svg"><path d="M489.5 777.2H548s17.7-1.9 26.8-11.6c8.3-8.9 8.1-25.7 8.1-25.7s-1.1-78.6 35.4-90.2c35.9-11.4 82.1 76 131.1 109.5 37.1 25.5 65.2 19.8 65.2 19.8l130.8-1.8s68.5-4.2 36-58c-2.7-4.4-19-39.8-97.3-112.6-82.1-76.2-71.1-63.8 27.8-195.5 60.2-80.3 84.2-129.2 76.7-150.3-7.3-20-51.6-14.8-51.6-14.8l-147.4 1s-11-1.5-19.1 3.3c-7.9 4.7-13 15.8-13 15.8S734.1 328.2 703 381c-65.6 111.5-91.8 117.3-102.5 110.4-25-16.1-18.8-64.8-18.8-99.3 0-107.9 16.4-153-31.9-164.6-16-3.9-27.8-6.4-68.8-6.9-52.5-.5-97.1.2-122.2 12.5-16.8 8.2-29.7 26.5-21.9 27.6 9.8 1.2 31.8 5.9 43.6 21.9 15.1 20.5 14.5 66.6 14.5 66.6s9 127.1-20 142.9c-19.8 10.8-47.1-11.3-105.6-112.4-30-51.8-52.6-109-52.6-109s-4.4-10.6-12.3-16.4c-9.4-7-22.6-9.1-22.6-9.1L42 246s-21.1.6-28.8 9.8c-6.9 8.1-.6 24.9-.6 24.9s109.6 256.5 233.8 385.7C360.2 785 489.5 777.2 489.5 777.2z"/></svg><svg viewBox="0 0 1000 1000" id="youtube" xmlns="http://www.w3.org/2000/svg"><path d="M989.4 418c-.4-19.7-1.9-44.6-4.6-74.6-2.7-30.1-6.7-57-11.8-80.7-5.8-26.6-18.5-49-38-67.3-19.5-18.2-42.2-28.8-68.1-31.7C786 154.6 663.7 150 500 150s-286 4.6-366.9 13.7c-25.9 2.9-48.5 13.5-67.8 31.7C46 213.6 33.4 236 27.6 262.7c-5.5 23.7-9.6 50.6-12.3 80.7-2.7 30.1-4.3 55-4.6 74.6-.4 19.7-.6 47-.6 82s.2 62.3.6 82c.4 19.7 1.9 44.6 4.6 74.6 2.7 30.1 6.7 57 11.8 80.7 5.8 26.6 18.5 49 38 67.3s42.2 28.8 68.1 31.7C214 845.4 336.3 850 500 850c163.7 0 286-4.6 366.9-13.7 25.9-2.9 48.5-13.5 67.8-31.7 19.3-18.2 31.9-40.7 37.7-67.3 5.5-23.7 9.6-50.6 12.3-80.7 2.7-30.1 4.3-55 4.6-74.6.4-19.7.6-47 .6-82 .1-35-.1-62.3-.5-82zM693.6 529.5l-280 175c-5.1 3.6-11.3 5.5-18.6 5.5-5.5 0-11.1-1.5-16.9-4.4-12-6.6-18-16.8-18-30.6V325c0-13.8 6-24.1 18-30.6 12.4-6.6 24.2-6.2 35.5 1.1l280 175c10.9 6.2 16.4 16 16.4 29.5s-5.5 23.3-16.4 29.5z"/></svg></svg>