<svg xmlns="http://www.w3.org/2000/svg" xmlns:xlink="http://www.w3.org/1999/xlink"><symbol id="logo-light" viewBox="0 0 64 64"><circle fill="currentColor" cx="32" cy="32" r="32"/><path fill="#17152f" d="M7.75 32.98v-1.99l9.01-5.92v3.41l-5.44 3.43v.16l5.44 3.43v3.43l-9.01-5.95zm12.06 10.1v-2.81h11.34v2.81H19.81zm14.4 0 7.41-22.16h3.04l-7.41 22.16h-3.04zm13.03-7.58 5.44-3.43v-.16l-5.44-3.43v-3.41l9.01 5.9v1.99l-9.01 5.97V35.5z"/></symbol><symbol id="logo" viewBox="0 0 64 64"><circle fill="#17152f" cx="32" cy="32" r="32"/><path fill="currentColor" d="M7.75 32.98v-1.99l9.01-5.92v3.41l-5.44 3.43v.16l5.44 3.43v3.43l-9.01-5.95zm12.06 10.1v-2.81h11.34v2.81H19.81zm14.4 0 7.41-22.16h3.04l-7.41 22.16h-3.04zm13.03-7.58 5.44-3.43v-.16l-5.44-3.43v-3.41l9.01 5.9v1.99l-9.01 5.97V35.5z"/></symbol></svg>