<?xml version="1.0" encoding="utf-8"?><svg viewBox="0 0 800 800" xmlns="http://www.w3.org/2000/svg" xmlns:xlink="http://www.w3.org/1999/xlink"><style>:root>svg{display:none}:root>svg:target{display:block}</style><svg viewBox="0 0 12 8" id="arrow-down" xmlns="http://www.w3.org/2000/svg"><path fill="#535C69" fill-rule="evenodd" d="M6 4.829L10.243.586 11.657 2 7.414 6.243 6 7.657.343 2 1.757.586 6 4.829z" opacity=".789"/></svg><svg viewBox="0 0 699.428 699.428" id="copy" xmlns="http://www.w3.org/2000/svg"><path d="M502.714 0H240.428C194.178 0 153 42.425 153 87.429l-25.267.59c-46.228 0-84.019 41.834-84.019 86.838V612c0 45.004 41.179 87.428 87.429 87.428H459c46.249 0 87.428-42.424 87.428-87.428h21.857c46.25 0 87.429-42.424 87.429-87.428v-349.19L502.714 0zM459 655.715H131.143c-22.95 0-43.714-21.441-43.714-43.715V174.857c0-22.272 18.688-42.993 41.638-42.993l23.933-.721v393.429C153 569.576 194.178 612 240.428 612h262.286c0 22.273-20.765 43.715-43.714 43.715zm153-131.143c0 22.271-20.765 43.713-43.715 43.713H240.428c-22.95 0-43.714-21.441-43.714-43.713V87.429c0-22.272 20.764-43.714 43.714-43.714H459c-.351 50.337 0 87.975 0 87.975 0 45.419 40.872 86.882 87.428 86.882H612v306zm-65.572-349.715c-23.277 0-43.714-42.293-43.714-64.981V44.348L612 174.857h-65.572zm-43.714 131.537H306c-12.065 0-21.857 9.77-21.857 21.835 0 12.065 9.792 21.835 21.857 21.835h196.714c12.065 0 21.857-9.771 21.857-21.835 0-12.065-9.792-21.835-21.857-21.835zm0 109.176H306c-12.065 0-21.857 9.77-21.857 21.834 0 12.066 9.792 21.836 21.857 21.836h196.714c12.065 0 21.857-9.77 21.857-21.836 0-12.064-9.792-21.834-21.857-21.834z"/></svg><svg viewBox="0 0 16 16" id="correct" xmlns="http://www.w3.org/2000/svg"><g fill="#2e3436"><path d="M13.55 4c-.488.004-.988.195-1.429.637l-7.625 7.625A1.7 1.7 0 004 13.46V16h2.54a1.7 1.7 0 001.198-.496l7.625-7.625c1.516-1.512.067-3.715-1.601-3.871C13.692 4 13.622 4 13.55 4zm-1.503 3.055l.898.898-5.98 5.98-.899-.898zm0 0M5 1s-.707-.016-1.45.355C2.813 1.727 2 2.668 2 4v2H0v1h.008a.992.992 0 00.285.707l2 2a1 1 0 001.414 0l2-2c.184-.187.29-.441.29-.707H6V6H4V4c.105-.8.5-1 1-1h5c.55 0 1-.45 1-1s-.45-1-1-1zm0 0"/></g></svg><svg fill-rule="evenodd" stroke-linejoin="round" stroke-miterlimit="2" clip-rule="evenodd" viewBox="0 0 32 32" id="day" xmlns="http://www.w3.org/2000/svg"><path d="M16.028 1c-8.279 0-15 6.721-15 15s6.721 15 15 15 15-6.721 15-15-6.721-15-15-15zm.944 25.75v-3.5a1 1 0 00-2 0v3.5a1 1 0 002 0zm7.317-3.836l-2.475-2.475a1 1 0 00-1.414 1.414l2.475 2.475a1 1 0 001.414-1.414zM9.086 24.289l2.475-2.475a1 1 0 00-1.414-1.414l-2.475 2.475a1 1 0 001.414 1.414zM15.965 10.5a5.503 5.503 0 00-5.5 5.5c0 3.036 2.465 5.5 5.5 5.5 3.036 0 5.5-2.464 5.5-5.5s-2.464-5.5-5.5-5.5zm.028 2h-.028a3.502 3.502 0 00-3.5 3.5c0 1.932 1.569 3.5 3.5 3.5h.028v-7zm10.757 2.528h-3.5a1 1 0 000 2h3.5a1 1 0 000-2zm-21.5 1.944h3.5a1 1 0 000-2h-3.5a1 1 0 000 2zm17.664-9.261l-2.475 2.475a1 1 0 001.414 1.414l2.475-2.475a1 1 0 00-1.414-1.414zM7.711 9.086l2.475 2.475a1 1 0 001.414-1.414L9.125 7.672a1 1 0 00-1.414 1.414zm7.317-3.836v3.5a1 1 0 002 0v-3.5a1 1 0 00-2 0z"/></svg><svg id="dzen" viewBox="0 0 215 215" xmlns="http://www.w3.org/2000/svg"><defs><style>.ecls-1{fill:#fff;fill-rule:evenodd}</style></defs><g id="eДзен"><path id="eДзен-2" data-name="Дзен" class="ecls-1" d="M382.38 871.83c-.34 27-2.18 42.16-12.29 52.29s-25.27 12-52.24 12.3v4c27 .34 42.12 2.18 52.24 12.3S382 978 382.38 1005h4c.33-27 2.17-42.16 12.29-52.29s25.27-12 52.24-12.3v-4c-27-.34-42.13-2.18-52.24-12.3s-12-25.3-12.29-52.29z" transform="translate(-277 -831)"/></g></svg><svg class="f_3Wke1EH" viewBox="0 0 68 68" id="dzen-play" xmlns="http://www.w3.org/2000/svg"><circle class="f_1YO-H8X" fill="#EEE" cx="34" cy="34" r="34"/><path d="M50.946 34L25 19.297v29.406z"/></svg><svg fill="none" viewBox="0 0 13 15" id="home" xmlns="http://www.w3.org/2000/svg"><path d="M6.5.5l-6 5.8v6.2h12V6.3L6.5.5zm5 11h-10V6.7l5-4.8 5 4.8v4.8z" fill="#fff"/><path d="M4.5 10.5h1V8h2v2.5h1V7h-4v3.5z" fill="#fff"/></svg><svg viewBox="0 0 16 16" id="link-blank" xmlns="http://www.w3.org/2000/svg"><path d="M7.775 3.275l1.25-1.25a3.5 3.5 0 114.95 4.95l-2.5 2.5a3.5 3.5 0 01-4.95 0 .751.751 0 01.018-1.042.751.751 0 011.042-.018 1.998 1.998 0 002.83 0l2.5-2.5a2.002 2.002 0 00-2.83-2.83l-1.25 1.25a.751.751 0 01-1.042-.018.751.751 0 01-.018-1.042zm-4.69 9.64a1.998 1.998 0 002.83 0l1.25-1.25a.751.751 0 011.042.018.751.751 0 01.018 1.042l-1.25 1.25a3.5 3.5 0 11-4.95-4.95l2.5-2.5a3.5 3.5 0 014.95 0 .751.751 0 01-.018 1.042.751.751 0 01-1.042.018 1.998 1.998 0 00-2.83 0l-2.5 2.5a1.998 1.998 0 000 2.83z"/></svg><svg viewBox="0 0 64 64" id="logo" xmlns="http://www.w3.org/2000/svg"><circle fill="#050818" cx="32" cy="32" r="32"/><path fill="#fff" d="M7.75 32.98v-1.99l9.01-5.92v3.41l-5.44 3.43v.16l5.44 3.43v3.43l-9.01-5.95zm12.06 10.1v-2.81h11.34v2.81H19.81zm14.4 0l7.41-22.16h3.04l-7.41 22.16h-3.04zm13.03-7.58l5.44-3.43v-.16l-5.44-3.43v-3.41l9.01 5.9v1.99l-9.01 5.97V35.5z"/></svg><svg version="1.2" baseProfile="tiny" viewBox="0 0 64 64" id="logo-light" xmlns="http://www.w3.org/2000/svg"><circle fill="#f7f6ff" cx="32" cy="32" r="32"/><path fill="currentColor" d="M7.75 32.98v-1.99l9.01-5.92v3.41l-5.44 3.43v.16l5.44 3.43v3.43l-9.01-5.95zm12.06 10.1v-2.81h11.34v2.81H19.81zm14.4 0l7.41-22.16h3.04l-7.41 22.16h-3.04zm13.03-7.58l5.44-3.43v-.16l-5.44-3.43v-3.41l9.01 5.9v1.99l-9.01 5.97V35.5z"/></svg><svg fill-rule="evenodd" stroke-linejoin="round" stroke-miterlimit="2" clip-rule="evenodd" viewBox="0 0 32 32" id="night" xmlns="http://www.w3.org/2000/svg"><path d="M16.028 1c-8.279 0-15 6.721-15 15s6.721 15 15 15 15-6.721 15-15-6.721-15-15-15zm0 2c7.175 0 13 5.825 13 13s-5.825 13-13 13-13-5.825-13-13 5.825-13 13-13z"/><path d="M15.965 10.5a5.503 5.503 0 00-5.5 5.5c0 3.036 2.465 5.5 5.5 5.5 3.036 0 5.5-2.464 5.5-5.5s-2.464-5.5-5.5-5.5zm.028 2h-.028a3.502 3.502 0 00-3.5 3.5c0 1.932 1.569 3.5 3.5 3.5h.028v-7zm-.965-7.25v3.5a1 1 0 002 0v-3.5a1 1 0 00-2 0zm7.886 2.461l-2.475 2.475a1 1 0 001.414 1.414l2.475-2.475a1 1 0 00-1.414-1.414zm3.836 7.317h-3.5a1 1 0 000 2h3.5a1 1 0 000-2zm-2.461 7.886l-2.475-2.475a1 1 0 00-1.414 1.414l2.475 2.475a1 1 0 001.414-1.414zm-7.317 3.836v-3.5a1 1 0 00-2 0v3.5a1 1 0 002 0zm-7.886-2.461l2.475-2.475a1 1 0 00-1.414-1.414l-2.475 2.475a1 1 0 001.414 1.414zM5.25 16.972h3.5a1 1 0 000-2h-3.5a1 1 0 000 2zm2.461-7.886l2.475 2.475a1 1 0 001.414-1.414L9.125 7.672a1 1 0 00-1.414 1.414z"/></svg><svg viewBox="0 -6.5 38 38" id="right-arrow" xmlns="http://www.w3.org/2000/svg"><path d="M26.812.58l10.513 10.424.088.082c.352.349.557.809.587 1.352l-.002.183c-.025.43-.19.842-.514 1.21l-.123.127L26.812 24.42a2.005 2.005 0 01-2.822 0 1.985 1.985 0 010-2.822l7.284-7.224H2C.897 14.375 0 13.486 0 12.385c0-1.102.897-1.992 2-1.992h29.04l-7.05-6.99a1.985 1.985 0 010-2.822 2.005 2.005 0 012.822 0z" fill="#1C1C1F" fill-rule="nonzero"/></svg><svg viewBox="0 0 512 512" id="swipe" xmlns="http://www.w3.org/2000/svg"><path d="M305 512l-11.6-2.4a102 102 0 01-51-28.8c-51.3-51.4-102.5-102.9-154.2-154-17.2-17-17-43.2 7.9-57.8 23-13.5 45.4-11.7 66.9 3.6 10.8 7.7 21.4 15.9 32 23.9l5.2 3.7V115.1c0-9.3 1.6-18.1 6.3-26.3a45 45 0 0148-20.9 43.4 43.4 0 0134.3 39.3c.7 23.5.4 47 .5 70.5v6.2a45.4 45.4 0 0137.8-3 45.8 45.8 0 0126.6 26.7 45 45 0 0166.8 22.3 44.3 44.3 0 0168.5 31.4c.5 5.1.7 10.3.7 15.4v110c-.1 28-7.6 53.6-24.7 76a120.8 120.8 0 01-83.2 48.2c-1.6.2-3.2.6-4.9 1l-71.9.1zm-82.3-296.5v103c0 2.3-.1 4.7-.6 6.9a10.8 10.8 0 01-14.9 7.4c-1.8-.8-3.4-2-5-3.2l-52.4-39.3c-14.6-10.9-32.1-10.9-45.3-.3-7.9 6.4-8.3 12.9-1 20.2l155.6 155.6a79 79 0 0058 23.9h48.5c12.9-.1 25.5-2.2 37.6-6.8a98.7 98.7 0 0063.8-87.8c.9-42.3.5-84.7.4-127 0-3.6-.8-7.4-2.3-10.6a21.8 21.8 0 00-23.9-12.4 22.4 22.4 0 00-18.2 20.5c-.3 4.6.1 9.4-.5 14-.8 6.2-5.6 9.8-11.5 9.4-5.6-.3-9.7-4.4-10.2-10.4-.3-3.5-.1-7-.1-10.5-.2-9 .3-18-.7-26.9a21.1 21.1 0 00-22.4-18.5c-12.3.4-21.3 9.8-21.5 23-.2 10.7.1 21.3-.1 32-.2 8.1-6.9 13.1-14.2 11-5-1.5-7.8-5.9-7.9-12.5v-52c0-8.4-2.9-15.4-10.1-20.1a21.1 21.1 0 00-22.3-1.2c-8.4 4.3-12.1 11.6-12.2 20.8l-.1 33.5c0 7.5.1 15-.4 22.5-.3 5.4-4.7 9.1-9.9 9.4-5.4.3-9.8-2.6-11.2-7.9-.6-2.4-.7-4.9-.8-7.4v-158l-.1-6.5a22.2 22.2 0 00-27.1-19.6c-11 2.7-17.1 11.1-17.1 23.8l.1 102zM81 0c10 6.8 10.6 13.1 2 21.7L60.6 44.2l6.6.3h94.9c2.3 0 4.7.1 7 .5a11 11 0 019 10.5c.1 4.9-3.3 9.4-8.2 10.6-2.4.6-4.9.7-7.4.7H60.2C68.5 75 75.7 82 82.8 89.2c7.2 7.1 8.2 13.4 3 18.6-5 5.1-11.7 4.2-18.6-2.7L26.8 64.9c-6.2-6.2-6.2-12.3.2-18.6C39.8 33.5 52.6 20.6 65.5 7.9 68.4 5 71.8 2.6 75 0h6zm333 0c2.8 2 6 3.7 8.4 6 13.7 13.4 27.2 27 40.7 40.6 5.9 5.9 6 12 .2 17.8l-42.1 42c-3.7 3.7-7.8 5.8-13 4.1-8-2.6-10-12.1-3.7-18.7 6.6-7 13.6-13.7 20.4-20.5l4.1-4.4H327.4c-1.8 0-3.7 0-5.5-.2-6.6-1.1-10.4-5.4-10.1-11.5.2-5.8 4.3-9.7 10.7-10.4 1.8-.2 3.7-.2 5.5-.2h99.6l1-1.7a822.5 822.5 0 01-22.1-21.3C398.1 13 398.9 6.3 409 0h5z"/></svg><svg id="telegram" viewBox="0 0 215 215" xmlns="http://www.w3.org/2000/svg"><defs><style>.ncls-1{fill:#fff;fill-rule:evenodd}</style></defs><g id="nTelegram"><path id="nTelegram-2" data-name="Telegram" class="ncls-1" d="M603.31 105.65q46.89-20.43 62.53-26.94c29.78-12.38 36-14.53 40-14.61a7.09 7.09 0 014.16 1.25 4.49 4.49 0 011.53 2.9 19.25 19.25 0 01.18 4.23c-1.61 17-8.6 58.09-12.15 77.08-1.5 8-4.46 10.73-7.33 11-6.22.57-11-4.12-17-8.07-9.44-6.19-14.77-10-23.93-16.08-10.59-7-3.72-10.81 2.31-17.07 1.58-1.64 29-26.6 29.54-28.86a2.18 2.18 0 00-.5-1.9 2.49 2.49 0 00-2.22-.21q-1.41.31-45.22 29.89-6.42 4.41-11.63 4.3c-3.83-.09-11.19-2.17-16.67-4-6.71-2.18-12-3.33-11.58-7q.37-2.88 7.98-5.91z" transform="translate(-554)"/></g></svg><svg id="vk" viewBox="0 0 215 215" xmlns="http://www.w3.org/2000/svg"><defs><style>.ocls-1{fill:#fff}</style></defs><g id="oVK"><path id="oVK-2" data-name="VK" class="ocls-1" d="M111.44 147.14C69.76 147.14 46 118.56 45 71h20.87c.69 34.9 16.08 49.69 28.27 52.74V71h19.67v30.1c12-1.29 24.69-15 28.95-30.1h19.67c-3.28 18.59-17 32.31-26.75 37.95A60.16 60.16 0 01167 147.14h-21.64c-4.65-14.48-16.24-25.68-31.55-27.2v27.2z"/></g></svg><svg id="youtube" viewBox="0 0 215 215" xmlns="http://www.w3.org/2000/svg"><defs><style>.pcls-1{fill:#fff}</style></defs><g id="pYouTube"><path id="pYouTube-2" data-name="YouTube" class="pcls-1" d="M1545.53 357.18a13.94 13.94 0 00-9.85-9.85c-8.68-2.33-43.53-2.33-43.53-2.33s-34.85 0-43.54 2.33a14 14 0 00-9.85 9.85c-2.33 8.69-2.33 26.82-2.33 26.82s0 18.13 2.33 26.82a14 14 0 009.85 9.85c8.69 2.33 43.54 2.33 43.54 2.33s34.84 0 43.53-2.33a13.94 13.94 0 009.85-9.85c2.33-8.69 2.33-26.82 2.33-26.82s0-18.13-2.33-26.82zM1481 400.71v-33.42l29 16.71z" transform="translate(-1385 -277)"/></g></svg></svg>