<svg version="1.0" xmlns="http://www.w3.org/2000/svg" width="933.333" height="933.333" viewBox="0 0 700 700"><path d="M328 .6c-1.9.2-8.4.9-14.5 1.4C249.6 8.2 187.1 33.5 134 74.6c-14.9 11.5-48.1 44.6-59.5 59.4-41 53.2-65.3 113.2-72.7 179.5-1.7 15.5-1.7 57.5 0 73 7.5 67.3 33.2 130 74.8 182 11.4 14.3 33.9 37.2 48.4 49.4 53.7 45.1 116.3 71.7 188.5 80.3 14.2 1.7 58.6 1.7 73 0 68.2-7.9 126.8-31.8 180.2-73.4 13.8-10.7 38.9-35.1 51.2-49.8 45.1-53.8 71.7-116.2 80.3-188.5 1.6-13.9 1.6-59.5 0-73-7.7-62.9-27.5-115.8-62-164.9-23.4-33.3-57.7-66.8-91.7-89.6-46-30.8-96.8-49.5-153.5-56.6C379.3.9 335.8-.3 328 .6zm159.8 229.9c-.2.8-18.3 55.2-40.3 121l-40 119.5h-33.4l32.8-97.8c18-53.7 36.3-108.2 40.5-121l7.8-23.2h16.5c14 0 16.4.2 16.1 1.5zM183 293.4v18.4l-29.2 18.4c-16.1 10.1-29.3 18.9-29.3 19.6 0 .7 13.1 9.6 29 19.6l29 18.3.3 18.7c.1 10.2 0 18.6-.2 18.6-.3 0-22.4-14.5-49.1-32.1L85 360.8l.1-11.2v-11.1l48.2-31.7c26.5-17.4 48.5-31.7 49-31.7.4-.1.7 8.2.7 18.3zM566.9 307l48.1 31.5v22.3l-48.2 31.8c-26.4 17.6-48.5 32.1-49 32.2-.5.2-.7-8-.6-18.3l.3-18.7 29-18.3c16-10.1 29-18.9 29-19.6 0-.7-13.2-9.6-29.2-19.8L517 311.7v-18.4c0-10.3.4-18.3.9-18.1.5.1 22.5 14.5 49 31.8zM340.8 455.7l.3 15.3H217v-31l61.8.2 61.7.3.3 15.2z"/></svg>