<?xml version="1.0" standalone="no"?>
<!DOCTYPE svg PUBLIC "-//W3C//DTD SVG 20010904//EN"
 "http://www.w3.org/TR/2001/REC-SVG-20010904/DTD/svg10.dtd">
<svg version="1.0" xmlns="http://www.w3.org/2000/svg"
 width="700.000000pt" height="700.000000pt" viewBox="0 0 700.000000 700.000000"
 preserveAspectRatio="xMidYMid meet">
<metadata>
Created by potrace 1.14, written by Peter Selinger 2001-2017
</metadata>
<g transform="translate(0.000000,700.000000) scale(0.100000,-0.100000)"
fill="#000000" stroke="none">
<path d="M3280 6994 c-19 -2 -84 -9 -145 -14 -639 -62 -1264 -315 -1795 -726
-149 -115 -481 -446 -595 -594 -410 -532 -653 -1132 -727 -1795 -17 -155 -17
-575 0 -730 75 -673 332 -1300 748 -1820 114 -143 339 -372 484 -494 537 -451
1163 -717 1885 -803 142 -17 586 -17 730 0 682 79 1268 318 1802 734 138 107
389 351 512 498 451 538 717 1162 803 1885 16 139 16 595 0 730 -77 629 -275
1158 -620 1649 -234 333 -577 668 -917 896 -460 308 -968 495 -1535 566 -117
15 -552 27 -630 18z m1598 -2299 c-2 -8 -183 -552 -403 -1210 l-400 -1195
-167 0 -167 0 328 978 c180 537 363 1082 405 1210 l78 232 165 0 c140 0 164
-2 161 -15z m-3048 -629 l0 -184 -292 -184 c-161 -101 -293 -189 -293 -196 0
-7 131 -96 290 -196 l290 -183 3 -187 c1 -102 0 -186 -2 -186 -3 0 -224 145
-491 321 l-485 321 1 112 0 111 482 317 c265 174 485 317 490 317 4 1 7 -82 7
-183z m3839 -136 l481 -315 0 -111 0 -112 -482 -318 c-264 -176 -485 -321
-490 -322 -5 -2 -7 80 -6 183 l3 187 290 183 c160 101 290 189 290 196 0 7
-132 96 -292 198 l-293 184 0 184 c0 103 4 183 9 181 5 -1 225 -145 490 -318z
m-2261 -1487 l3 -153 -621 0 -620 0 0 155 0 155 618 -2 617 -3 3 -152z"/>
</g>
</svg>
